<svg width="157" height="74" viewBox="0 0 157 74" fill="none" xmlns="http://www.w3.org/2000/svg">
<path d="M0 17.999H4.47282V39.2735H0V17.999Z" fill="#29292E"/>
<path d="M22.5872 31.6181C22.5872 31.6755 22.5585 32.0769 22.5012 32.8223H10.8317C11.042 33.7781 11.5389 34.5331 12.3226 35.0874C13.1063 35.6417 14.0812 35.9189 15.2472 35.9189C16.05 35.9189 16.7572 35.8042 17.3689 35.5748C17.9997 35.3264 18.5827 34.9441 19.1179 34.428L21.4977 37.0084C20.0449 38.6714 17.9232 39.5029 15.1325 39.5029C13.3931 39.5029 11.8543 39.1684 10.5163 38.4994C9.1783 37.8113 8.14611 36.8651 7.41975 35.6609C6.6934 34.4566 6.33022 33.0899 6.33022 31.5608C6.33022 30.0507 6.68384 28.6936 7.39108 27.4894C8.11744 26.266 9.10184 25.3199 10.3443 24.6508C11.6059 23.9627 13.0108 23.6187 14.5591 23.6187C16.0691 23.6187 17.4358 23.9436 18.6591 24.5935C19.8825 25.2434 20.8382 26.18 21.5263 27.4033C22.2336 28.6076 22.5872 30.0125 22.5872 31.6181ZM14.5877 27.0019C13.5747 27.0019 12.7241 27.2887 12.0359 27.8621C11.3478 28.4355 10.9273 29.2192 10.7744 30.2132H18.3724C18.2195 29.2384 17.799 28.4642 17.1109 27.8908C16.4227 27.2982 15.5817 27.0019 14.5877 27.0019Z" fill="#29292E"/>
<path d="M34.3673 38.5281C33.9277 38.853 33.3829 39.1015 32.733 39.2735C32.1022 39.4264 31.4332 39.5029 30.726 39.5029C28.891 39.5029 27.4669 39.0346 26.4539 38.098C25.4599 37.1614 24.9629 35.7851 24.9629 33.9692V27.6327H22.5832V24.1921H24.9629V20.4361H29.4357V24.1921H33.2778V27.6327H29.4357V33.9119C29.4357 34.5618 29.5982 35.0683 29.9232 35.4315C30.2672 35.7755 30.7451 35.9476 31.3568 35.9476C32.064 35.9476 32.6661 35.7564 33.1631 35.3741L34.3673 38.5281Z" fill="#29292E"/>
<path d="M55.4862 23.6187C57.4168 23.6187 58.9459 24.1921 60.0737 25.339C61.2206 26.4667 61.794 28.1679 61.794 30.4426V39.2735H57.3212V31.1307C57.3212 29.9074 57.0631 28.9994 56.5471 28.4069C56.0501 27.7952 55.3333 27.4894 54.3967 27.4894C53.3454 27.4894 52.5139 27.8334 51.9022 28.5216C51.2905 29.1906 50.9847 30.1941 50.9847 31.5321V39.2735H46.5119V31.1307C46.5119 28.7031 45.537 27.4894 43.5873 27.4894C42.5552 27.4894 41.7332 27.8334 41.1216 28.5216C40.5099 29.1906 40.2041 30.1941 40.2041 31.5321V39.2735H35.7312V23.848H40.0034V25.6257C40.5768 24.9758 41.2745 24.4788 42.0964 24.1348C42.9375 23.7907 43.855 23.6187 44.8489 23.6187C45.9384 23.6187 46.9228 23.8385 47.8021 24.2781C48.6814 24.6986 49.3886 25.3199 49.9238 26.1418C50.5546 25.339 51.3479 24.7177 52.3036 24.2781C53.2785 23.8385 54.3393 23.6187 55.4862 23.6187Z" fill="#29292E"/>
<path d="M79.9344 31.6181C79.9344 31.6755 79.9057 32.0769 79.8484 32.8223H68.1789C68.3891 33.7781 68.8861 34.5331 69.6698 35.0874C70.4535 35.6417 71.4284 35.9189 72.5944 35.9189C73.3972 35.9189 74.1044 35.8042 74.7161 35.5748C75.3469 35.3264 75.9299 34.9441 76.4651 34.428L78.8448 37.0084C77.3921 38.6714 75.2704 39.5029 72.4797 39.5029C70.7402 39.5029 69.2015 39.1684 67.8635 38.4994C66.5255 37.8113 65.4933 36.8651 64.7669 35.6609C64.0406 34.4566 63.6774 33.0899 63.6774 31.5608C63.6774 30.0507 64.031 28.6936 64.7383 27.4894C65.4646 26.266 66.449 25.3199 67.6915 24.6508C68.953 23.9627 70.3579 23.6187 71.9062 23.6187C73.4163 23.6187 74.783 23.9436 76.0063 24.5935C77.2296 25.2434 78.1854 26.18 78.8735 27.4033C79.5807 28.6076 79.9344 30.0125 79.9344 31.6181ZM71.9349 27.0019C70.9218 27.0019 70.0712 27.2887 69.3831 27.8621C68.695 28.4355 68.2745 29.2192 68.1215 30.2132H75.7196C75.5667 29.2384 75.1462 28.4642 74.458 27.8908C73.7699 27.2982 72.9289 27.0019 71.9349 27.0019Z" fill="#29292E"/>
<path d="M106.086 23.848L103.018 39.2735H98.7747L99.0615 37.7539C97.7808 38.9199 96.2038 39.5029 94.3306 39.5029C93.1264 39.5029 92.0177 39.2257 91.0047 38.6714C89.9916 38.1171 89.1792 37.3238 88.5675 36.2916C87.975 35.2403 87.6787 34.0074 87.6787 32.593C87.6787 30.8918 88.0514 29.3626 88.7969 28.0055C89.5615 26.6292 90.5937 25.5588 91.8935 24.7942C93.1933 24.0105 94.6269 23.6187 96.1943 23.6187C98.5645 23.6187 100.237 24.3928 101.212 25.9411L101.613 23.848H106.086ZM95.7068 35.8042C96.5861 35.8042 97.3698 35.594 98.0579 35.1734C98.7461 34.7338 99.2813 34.1317 99.6636 33.3671C100.046 32.6025 100.237 31.7233 100.237 30.7293C100.237 29.678 99.9216 28.8465 99.2908 28.2348C98.6792 27.6232 97.819 27.3173 96.7104 27.3173C95.8311 27.3173 95.0474 27.5372 94.3593 27.9768C93.6711 28.3973 93.1359 28.9899 92.7536 29.7544C92.3713 30.519 92.1802 31.3983 92.1802 32.3923C92.1802 33.4436 92.486 34.2751 93.0977 34.8867C93.7285 35.4984 94.5982 35.8042 95.7068 35.8042Z" fill="url(#paint0_radial_2_29)"/>
<path d="M111.632 39.5029C110.294 39.5029 109.023 39.3595 107.819 39.0728C106.634 38.767 105.707 38.3751 105.038 37.8973L106.758 34.6573C107.427 35.097 108.239 35.4506 109.195 35.7182C110.17 35.9858 111.145 36.1196 112.119 36.1196C113.133 36.1196 113.888 35.9954 114.385 35.7469C114.882 35.4793 115.13 35.1065 115.13 34.6287C115.13 34.2464 114.91 33.9692 114.471 33.7972C114.031 33.6252 113.324 33.4436 112.349 33.2524C111.24 33.0422 110.323 32.8128 109.596 32.5643C108.889 32.3158 108.268 31.9144 107.733 31.3601C107.217 30.7866 106.959 30.0125 106.959 29.0376C106.959 27.3364 107.666 26.008 109.08 25.0523C110.514 24.0965 112.387 23.6187 114.7 23.6187C115.77 23.6187 116.812 23.7333 117.825 23.9627C118.838 24.1921 119.698 24.5075 120.406 24.9089L118.8 28.1775C117.538 27.3938 116.019 27.0019 114.241 27.0019C113.266 27.0019 112.521 27.1453 112.005 27.432C111.508 27.7187 111.259 28.0819 111.259 28.5216C111.259 28.923 111.479 29.2192 111.919 29.4104C112.358 29.5824 113.094 29.7736 114.127 29.9838C115.216 30.1941 116.105 30.4235 116.793 30.6719C117.5 30.9013 118.112 31.2932 118.628 31.8475C119.144 32.4018 119.402 33.1568 119.402 34.1126C119.402 35.8329 118.676 37.1614 117.223 38.098C115.79 39.0346 113.926 39.5029 111.632 39.5029Z" fill="url(#paint1_radial_2_29)"/>
<path d="M131.595 30.5573L136.899 39.2735H131.71L128.04 33.2811L125.316 35.5462L124.57 39.2735H120.097L124.341 17.999H128.814L126.434 29.8978L133.831 23.848H139.652L131.595 30.5573Z" fill="url(#paint2_radial_2_29)"/>
<path d="M81.0842 14.9024V7.73438C81.0842 4.56737 83.6516 2 86.8186 2H148.463C151.63 2 154.198 4.56737 154.198 7.73438V47.8751C154.198 51.0421 151.63 53.6094 148.463 53.6094H138.428L141.782 69.2603C142.075 70.6282 140.436 71.563 139.408 70.6141L124.092 56.4766H86.8186C83.6516 56.4766 81.0842 53.9093 81.0842 50.7422V47.8751" stroke="url(#paint3_radial_2_29)" stroke-width="4"/>
<defs>
<radialGradient id="paint0_radial_2_29" cx="0" cy="0" r="1" gradientUnits="userSpaceOnUse" gradientTransform="translate(140 18) rotate(157.068) scale(56.4624 136.464)">
<stop stop-color="#0DCCFF"/>
<stop offset="1" stop-color="#4760FF"/>
</radialGradient>
<radialGradient id="paint1_radial_2_29" cx="0" cy="0" r="1" gradientUnits="userSpaceOnUse" gradientTransform="translate(140 18) rotate(157.068) scale(56.4624 136.464)">
<stop stop-color="#0DCCFF"/>
<stop offset="1" stop-color="#4760FF"/>
</radialGradient>
<radialGradient id="paint2_radial_2_29" cx="0" cy="0" r="1" gradientUnits="userSpaceOnUse" gradientTransform="translate(140 18) rotate(157.068) scale(56.4624 136.464)">
<stop stop-color="#0DCCFF"/>
<stop offset="1" stop-color="#4760FF"/>
</radialGradient>
<radialGradient id="paint3_radial_2_29" cx="0" cy="0" r="1" gradientUnits="userSpaceOnUse" gradientTransform="translate(69.5 65.5) rotate(-36.0787) scale(123.112 130.451)">
<stop stop-color="#0DCCFF" stop-opacity="0.34"/>
<stop offset="1" stop-color="#4760FF"/>
</radialGradient>
</defs>
</svg>
